<?xml version="1.0" encoding="iso-8859-1"?>
<!-- Generator: Adobe Illustrator 16.0.0, SVG Export Plug-In . SVG Version: 6.00 Build 0)  -->
<!DOCTYPE svg PUBLIC "-//W3C//DTD SVG 1.1//EN" "http://www.w3.org/Graphics/SVG/1.1/DTD/svg11.dtd">
<svg version="1.1" id="Capa_1" xmlns="http://www.w3.org/2000/svg" xmlns:xlink="http://www.w3.org/1999/xlink" x="0px" y="0px"
	 width="106.048px" height="106.048px" viewBox="0 0 106.048 106.048" style="enable-background:new 0 0 106.048 106.048;"
	 xml:space="preserve">
<g>
	<path style="fill:#010002;" d="M84.838,0H21.209C9.543,0,0,9.543,0,21.209v63.629c0,11.666,9.543,21.21,21.209,21.21h63.628
		c11.667,0,21.21-9.544,21.21-21.21V21.209C106.048,9.543,96.505,0,84.838,0z M53.023,92.792c-9.973,0-18.043-8.078-18.043-18.041
		c0-2.78,0.684-5.391,1.812-7.746c2.9,0.745,9.046,1.253,16.236,1.253c7.192,0,13.334-0.518,16.233-1.253
		c1.129,2.355,1.812,4.966,1.812,7.746C71.064,84.714,62.981,92.792,53.023,92.792z M71.064,62.344
		c0,1.223-8.067,2.201-18.041,2.201c-9.973,0-18.043-0.979-18.043-2.201V50.919l18.043,7.313l18.041-7.319V62.344z M77.724,64.545
		h-2.89l0.58-2.719c-0.554-0.378-0.938-1.062-0.938-1.885c0-0.983,0.533-1.786,1.264-2.066v-8.849l1.082-0.435v9.284
		c0.726,0.28,1.264,1.083,1.264,2.066c0,0.823-0.394,1.507-0.953,1.885L77.724,64.545z M53.023,56.441L25.96,45.453l27.063-10.988
		l27.062,10.988L53.023,56.441z M89.483,39.703L53.023,21.58L16.564,39.703l-3.309-6.659l39.717-19.747l0.015-0.041l0.036,0.021
		l0.037-0.021l0.016,0.046l39.716,19.747L89.483,39.703z"/>
</g>
<g>
</g>
<g>
</g>
<g>
</g>
<g>
</g>
<g>
</g>
<g>
</g>
<g>
</g>
<g>
</g>
<g>
</g>
<g>
</g>
<g>
</g>
<g>
</g>
<g>
</g>
<g>
</g>
<g>
</g>
</svg>
