<?xml version="1.0" encoding="iso-8859-1"?>
<!-- Generator: Adobe Illustrator 16.0.0, SVG Export Plug-In . SVG Version: 6.00 Build 0)  -->
<!DOCTYPE svg PUBLIC "-//W3C//DTD SVG 1.1//EN" "http://www.w3.org/Graphics/SVG/1.1/DTD/svg11.dtd">
<svg version="1.1" id="Capa_1" xmlns="http://www.w3.org/2000/svg" xmlns:xlink="http://www.w3.org/1999/xlink" x="0px" y="0px"
	 width="106.048px" height="106.048px" viewBox="0 0 106.048 106.048" style="enable-background:new 0 0 106.048 106.048;"
	 xml:space="preserve">
<g>
	<path style="fill:#010002;" d="M54.463,63.002v-7.348c1.44,0.523,2.331,1.532,2.673,3.003l5.644-0.621
		c-0.383-1.874-1.284-3.376-2.677-4.495c-1.394-1.124-3.283-1.802-5.64-2.045v-1.861h-3.236v1.866
		c-2.555,0.213-4.603,1.021-6.141,2.413c-1.543,1.398-2.307,3.128-2.307,5.179c0,2.045,0.673,3.759,2.043,5.193
		c1.357,1.413,3.493,2.48,6.405,3.185v7.871c-0.802-0.321-1.532-0.85-2.185-1.574c-0.652-0.735-1.098-1.596-1.331-2.59l-5.817,0.519
		c0.44,2.475,1.471,4.38,3.076,5.737c1.608,1.356,3.689,2.164,6.263,2.423v3.423h3.23v-3.516c2.9-0.353,5.163-1.305,6.789-2.858
		c1.631-1.548,2.438-3.47,2.438-5.728c0-2.04-0.642-3.697-1.937-5.002C60.46,64.871,58.036,63.825,54.463,63.002z M51.232,62.106
		c-0.966-0.353-1.686-0.808-2.164-1.388c-0.477-0.564-0.715-1.181-0.715-1.854c0-0.729,0.259-1.382,0.779-1.988
		c0.518-0.601,1.214-1.03,2.094-1.273v6.504H51.232z M57.188,74.295c-0.694,0.705-1.605,1.129-2.725,1.311v-7.338
		c1.336,0.332,2.305,0.798,2.89,1.409c0.585,0.605,0.881,1.336,0.881,2.169C58.233,72.783,57.886,73.597,57.188,74.295z M84.838,0
		H21.209C9.543,0,0,9.543,0,21.209v63.629c0,11.666,9.543,21.21,21.209,21.21h63.628c11.667,0,21.21-9.544,21.21-21.21V21.209
		C106.048,9.543,96.505,0,84.838,0z M37.526,13.367c8.388-0.935,11.298,4.21,15.503,4.422c4.194-0.212,7.114-5.356,15.492-4.422
		c8.575,0.955,13.77,8.235,13.77,8.235l-10.45,9.72h-37.64l-10.447-9.72C23.754,21.603,28.956,14.322,37.526,13.367z M88.618,84.092
		c0,0-2.263,8.7-12.707,8.7H30.155c-10.452,0-12.72-8.7-12.72-8.7c-6.835-30.157,13.95-46.509,13.95-46.509h43.283
		C74.668,37.583,95.443,53.94,88.618,84.092z"/>
</g>
<g>
</g>
<g>
</g>
<g>
</g>
<g>
</g>
<g>
</g>
<g>
</g>
<g>
</g>
<g>
</g>
<g>
</g>
<g>
</g>
<g>
</g>
<g>
</g>
<g>
</g>
<g>
</g>
<g>
</g>
</svg>
