<?xml version="1.0" encoding="iso-8859-1"?>
<!-- Generator: Adobe Illustrator 16.0.0, SVG Export Plug-In . SVG Version: 6.00 Build 0)  -->
<!DOCTYPE svg PUBLIC "-//W3C//DTD SVG 1.1//EN" "http://www.w3.org/Graphics/SVG/1.1/DTD/svg11.dtd">
<svg version="1.1" id="Capa_1" xmlns="http://www.w3.org/2000/svg" xmlns:xlink="http://www.w3.org/1999/xlink" x="0px" y="0px"
	 width="106.048px" height="106.048px" viewBox="0 0 106.048 106.048" style="enable-background:new 0 0 106.048 106.048;"
	 xml:space="preserve">
<g>
	<path style="fill:#010002;" d="M21.209,106.048h63.628c11.667,0,21.21-9.544,21.21-21.21V21.209C106.048,9.543,96.505,0,84.838,0
		H21.209C9.543,0,0,9.543,0,21.209v63.629C0,96.504,9.543,106.048,21.209,106.048z M74.564,42.812c4.484,0,8.141,3.648,8.141,8.147
		c0,4.503-3.656,8.143-8.141,8.143c-4.515,0-8.171-3.64-8.171-8.143C66.394,46.46,70.055,42.812,74.564,42.812z M58.58,37.966
		c1.527-0.313,2.987,0.704,3.283,2.227l3.785,19.697c0,0,0.409,2.361,2.63,1.751c1.502-0.425,3.31-0.622,5.499-0.622h0.777h0.771
		c2.19,0,3.992,0.197,5.499,0.622c2.222,0.61,2.625-1.751,2.625-1.751l3.791-19.697c0.29-1.522,1.755-2.54,3.282-2.227
		c1.513,0.3,2.512,1.761,2.222,3.28c0,0-4.365,23.128-4.976,25.872c-0.602,2.745-4.226,3.47-4.226,3.47L83.14,86.795h-8.585h-8.596
		l-0.404-16.207c0,0-3.614-0.73-4.225-3.47c-0.606-2.744-4.977-25.872-4.977-25.872C56.068,39.727,57.062,38.266,58.58,37.966z
		 M23.118,34.551l1.437-11.561l4.593,8.086l8.272-11.824L37.07,32.26l9.416-4.487l-5.52,10.999l11.05-2.069l-9.82,10.625
		l4.534-7.332l-8.197,0.456l2.576-7.63l-6.669,2.763l0.184-8.399l-5.264,7.073l-3.511-5.388l-1.564,8.399l-5.546-2.253l0.668,7.123
		l-4.645-10.936L23.118,34.551z M37.249,50.96c0,4.508-3.648,8.143-8.146,8.143c-4.505,0-8.158-3.64-8.158-8.143
		c0-4.5,3.658-8.147,8.158-8.147C33.606,42.812,37.249,46.46,37.249,50.96z M15.614,67.584c2.012-4.08,5.104-6.565,12.705-6.565
		h0.784h0.774c7.614,0,9.069,2.237,12.712,6.565c2.693,3.201,2.75,3.78,4.645,6.566l5.903-2.662c1.394-0.642,3.065-0.01,3.708,1.409
		c0.626,1.408,0,3.065-1.414,3.697l-8.399,3.78c-0.373,0.176-0.764,0.248-1.152,0.248c-0.386,0-0.746-0.166-1.093-0.311
		l-0.072,0.052l-0.106-0.108c-0.546-0.28-6.517-6.711-6.517-6.711l-0.394,13.25H20.516L20.117,73.55l-1.284,13.245h-5.577
		C13.955,79.152,15.001,68.858,15.614,67.584z"/>
</g>
<g>
</g>
<g>
</g>
<g>
</g>
<g>
</g>
<g>
</g>
<g>
</g>
<g>
</g>
<g>
</g>
<g>
</g>
<g>
</g>
<g>
</g>
<g>
</g>
<g>
</g>
<g>
</g>
<g>
</g>
</svg>
